<svg xmlns="http://www.w3.org/2000/svg" viewBox="0 0 467.73 325.53">
  <defs>
    <style>
      .cls-1 {
        isolation: isolate;
      }
    </style>
  </defs>
  <title>Asset 1</title>
  <g id="Layer_2" data-name="Layer 2">
    <g id="Layer_1-2" data-name="Layer 1">
      <g id="Layer_1-2-2" data-name="Layer 1-2">
        <path d="M177.69,192.39l5.18,132.07-85-136.71L68.8,208.61V324.46H0V0H68.8V148.47L95.87,110.3,183.76,0H260.1L146.92,143.59Z"/>
        <g class="cls-1">
          <path d="M229.86,291.65l-11.34-2c1.28-4.57,3.47-7.94,6.58-10.14s7.74-3.29,13.87-3.29q8.35,0,12.45,2a12.47,12.47,0,0,1,5.76,5q1.67,3,1.66,11.18L258.71,309a50.62,50.62,0,0,0,.6,9.18,27,27,0,0,0,2.24,6.33H249.2q-.49-1.24-1.2-3.69-.31-1.11-.45-1.47a22.41,22.41,0,0,1-6.84,4.67,19.59,19.59,0,0,1-7.78,1.56q-7.29,0-11.49-4a13.15,13.15,0,0,1-4.2-10,13.39,13.39,0,0,1,1.91-7.14,12.47,12.47,0,0,1,5.35-4.8,42,42,0,0,1,9.94-2.91,67.08,67.08,0,0,0,12.13-3.07v-1.24q0-3.6-1.77-5.13t-6.72-1.54a9,9,0,0,0-5.2,1.31A9.17,9.17,0,0,0,229.86,291.65Zm16.71,10.14q-2.4.79-7.6,1.91t-6.8,2.18a5.19,5.19,0,0,0-2.44,4.4,6.12,6.12,0,0,0,2,4.53,6.83,6.83,0,0,0,5,1.92,10.87,10.87,0,0,0,6.45-2.23,7.83,7.83,0,0,0,3-4.13,25.15,25.15,0,0,0,.48-6.09Z"/>
          <path d="M314.1,324.46H301.61V300.37q0-7.65-.8-9.89a7,7,0,0,0-2.6-3.49,7.45,7.45,0,0,0-4.34-1.25,10,10,0,0,0-5.82,1.78,9,9,0,0,0-3.54,4.71c-.63,2-.95,5.57-.95,10.85v21.38H271.07V277.25h11.6v6.94q6.18-8,15.56-8a18.82,18.82,0,0,1,7.56,1.49,12.71,12.71,0,0,1,5.17,3.8,13.63,13.63,0,0,1,2.45,5.25,38.94,38.94,0,0,1,.69,8.4Z"/>
          <path d="M339.75,324.46l-19-47.21h13.12l8.89,24.09,2.57,8.05q1-3.06,1.29-4.05c.42-1.33.86-2.66,1.34-4l9-24.09h12.84L351,324.46Z"/>
          <path d="M386.73,291.65l-11.33-2c1.27-4.57,3.47-7.94,6.58-10.14s7.73-3.29,13.87-3.29q8.36,0,12.44,2a12.42,12.42,0,0,1,5.76,5q1.67,3,1.67,11.18L415.58,309a50.62,50.62,0,0,0,.6,9.18,27.06,27.06,0,0,0,2.25,6.33H406.07q-.48-1.24-1.2-3.69c-.21-.74-.35-1.23-.44-1.47a22.57,22.57,0,0,1-6.85,4.67,19.55,19.55,0,0,1-7.78,1.56q-7.29,0-11.49-4a13.15,13.15,0,0,1-4.2-10,13.48,13.48,0,0,1,1.91-7.14,12.5,12.5,0,0,1,5.36-4.8,41.89,41.89,0,0,1,9.93-2.91,67.25,67.25,0,0,0,12.14-3.07v-1.24q0-3.6-1.78-5.13T395,285.74a9,9,0,0,0-5.2,1.31A9.18,9.18,0,0,0,386.73,291.65Zm16.72,10.14q-2.4.79-7.6,1.91t-6.8,2.18a5.2,5.2,0,0,0-2.45,4.4,6.09,6.09,0,0,0,2,4.53,6.8,6.8,0,0,0,5,1.92A10.82,10.82,0,0,0,400,314.5a7.78,7.78,0,0,0,3-4.13,24.48,24.48,0,0,0,.49-6.09Z"/>
          <path d="M423.63,311l12.54-1.91a9.15,9.15,0,0,0,3.24,5.53,11,11,0,0,0,6.85,1.89q4.85,0,7.29-1.78a4,4,0,0,0,1.64-3.33,3.23,3.23,0,0,0-.89-2.35q-.93-.9-4.17-1.65Q435,304.06,431,301.3a12.16,12.16,0,0,1-5.61-10.62,13.12,13.12,0,0,1,4.85-10.32q4.85-4.17,15-4.18,9.69,0,14.4,3.16a16.16,16.16,0,0,1,6.49,9.33l-11.78,2.18a7.33,7.33,0,0,0-2.87-4.22,10.46,10.46,0,0,0-6-1.47q-4.93,0-7.07,1.38a3,3,0,0,0-1.42,2.54,2.75,2.75,0,0,0,1.24,2.26q1.69,1.25,11.67,3.51t13.94,5.56q3.9,3.33,3.91,9.29a14.27,14.27,0,0,1-5.42,11.16q-5.43,4.67-16.05,4.67-9.64,0-15.27-3.91A18,18,0,0,1,423.63,311Z"/>
        </g>
      </g>
    </g>
  </g>
</svg>
