<svg xmlns="http://www.w3.org/2000/svg" viewBox="0 0 396.05 46.63">
  <title>Asset 4</title>
  <g id="Layer_2" data-name="Layer 2">
    <g id="Layer_1-2" data-name="Layer 1">
      <g>
        <path d="M143.64.67c4,0,7.71-.09,11.44.07a3.48,3.48,0,0,1,2.22,1.53c4.57,6.85,9.06,13.75,13.58,20.64a4.78,4.78,0,0,0,1.87,1.8V.8h12.61V46.12c-4,0-8,.06-12.07-.08-.59,0-1.25-.95-1.68-1.59-4.44-6.65-8.83-13.32-13.23-20-.49-.73-1-1.42-1.94-2.7V46h-12.8Z"/>
        <path d="M0,46V.83H12.76V18.7l.56.15c3.14-4.36,6.59-8.52,9.33-13.11C25.07,1.68,28-.11,32.73.6c2.59.38,5.3.06,8.5.06-.7,1.06-1.13,1.79-1.64,2.46C35.18,9,30.82,14.84,26.3,20.6c-1.23,1.57-1.38,2.56-.08,4.23,5,6.37,9.72,12.88,14.55,19.35.38.51.71,1,1.31,2-5.17,0-10,.06-14.74-.06-.63,0-1.39-.79-1.83-1.4-3.67-5.05-7.28-10.14-10.92-15.21-.41-.58-.88-1.12-1.8-2.29V46Z"/>
        <path d="M333.4,46H320.1c-.62-1.79-1.16-3.77-2-5.62a3,3,0,0,0-2-1.6c-4.65-.14-9.31-.07-14.08-.07-.7,2.05-1.29,4.05-2.09,6a2.45,2.45,0,0,1-1.61,1.4c-4,.12-8,.06-12.24.06.27-.91.43-1.61.67-2.28,5-13.66,10-27.3,14.88-41C302.23,1.23,303,.53,304.8.62c3.58.16,7.16,0,10.74.11a2.85,2.85,0,0,1,2.16,1.35c5.27,14.25,10.43,28.55,15.6,42.84A4.74,4.74,0,0,1,333.4,46ZM310.09,15.94l-.54-.09-4.19,12.8h8.94Z"/>
        <path d="M67.56,46.14C68.9,42.46,70.08,39.2,71.27,36c4-11,8.08-22,12-33C83.9,1.08,84.76.54,86.62.62c3.49.15,7,0,10.48.11A2.87,2.87,0,0,1,99.3,2c5.29,14.33,10.46,28.7,15.65,43.07a4.92,4.92,0,0,1,.09,1c-4.17,0-8.3,0-12.42-.06-.47,0-1.1-.81-1.35-1.38-.81-1.89-1-4.71-2.34-5.55-1.67-1-4.34-.35-6.58-.41h-1.5c-2.25,0-5-.74-6.59.29s-1.78,3.85-2.74,5.81a2.48,2.48,0,0,1-1.7,1.25C75.92,46.2,72,46.14,67.56,46.14ZM96,28.69c-1.47-4.39-2.86-8.57-4.26-12.75h-.54L87,28.69Z"/>
        <path d="M395.38,14.12h-12.7c-1.84-1.5-3.06-3-4.63-3.59-.8-.32-2.74.57-3.18,1.43a3.67,3.67,0,0,0,.74,3.42,20.15,20.15,0,0,0,5,2.68c3.17,1.43,6.54,2.49,9.56,4.19,8.33,4.69,6.63,15,2.14,19.55-6.84,6.92-22.82,6.35-28.68-1.36-1.71-2.25-2.43-5.25-3.92-8.63,5.25,0,9.53,0,13.81.06.34,0,.76.92,1,1.48.74,1.94,2.14,3.18,4.16,2.78,1.27-.25,3-1.19,3.34-2.2s-.68-2.94-1.67-3.55c-2-1.24-4.48-1.73-6.63-2.79-3.32-1.63-7-2.93-9.69-5.34-5.48-4.95-4.24-14.79,1.88-19s17.19-4.38,23.5-.23C393.31,5.61,395.14,9.32,395.38,14.12Z"/>
        <path d="M237.6,31.89q2.39-7.55,4.77-15.1c1.47-4.67,3-9.32,4.33-14,.48-1.72,1.27-2.18,3-2.12,3.65.12,7.31,0,11.36,0-.29,1.06-.47,1.89-.75,2.7-4.64,13.5-9.32,27-13.91,40.51-.55,1.65-1.24,2.4-3.12,2.33-4.16-.17-8.32,0-12.48-.11a2.59,2.59,0,0,1-2-1.19c-5.06-14.42-10-28.86-15-43.31a4.2,4.2,0,0,1,0-.89c4.27,0,8.54-.07,12.8.09.48,0,1.07,1.29,1.32,2.06q4.49,14,8.88,28l.3.94Z"/>
      </g>
    </g>
  </g>
</svg>
