<svg width="48" height="48" viewBox="0 0 48 48" fill="none" xmlns="http://www.w3.org/2000/svg">
<path fill-rule="evenodd" clip-rule="evenodd" d="M24 0C10.7452 0 0 10.7452 0 24C0 37.2548 10.7452 48 24 48C37.2548 48 48 37.2548 48 24C48 10.7452 37.2548 0 24 0ZM22.6709 35.9747C23.5593 36.9058 24.9696 37.3713 26.9019 37.3713C28.1694 37.3752 29.4207 37.0855 30.5578 36.5251C31.6685 35.9928 32.5642 35.0968 33.0964 33.9857C33.6575 32.8383 33.9471 31.577 33.9425 30.2996C33.9332 29.6303 33.8552 28.9637 33.7098 28.3103C33.533 27.4819 33.203 26.6939 32.7367 25.9868C32.2163 25.1516 31.4675 24.4831 30.5788 24.0606C29.8115 23.6288 28.9533 23.3838 28.0737 23.3453C27.6293 23.3864 27.1932 23.4919 26.7791 23.6585L33.6332 16.769L32.5203 15.6518L21.3425 15.6858V10.8444L20.2635 10.2856H17.3909V11.0933L18.3808 12.0842V15.6858H14.0569V17.2654H18.3608V25.7456C18.3299 26.2844 18.4068 26.8239 18.587 27.3326C18.7672 27.8413 19.047 28.3089 19.41 28.7082C20.1163 29.4304 21.3855 29.7916 23.2176 29.7916C23.9429 29.7953 24.6525 29.5796 25.2532 29.173C25.9001 28.7242 26.4039 28.0985 26.7045 27.3707C26.7389 27.2314 26.7643 27.09 26.7807 26.9475C26.7833 26.7354 26.7064 26.53 26.565 26.372C26.4533 26.2754 26.3142 26.2162 26.1672 26.2028C26.0923 26.2029 26.0199 26.2299 25.9632 26.2789C25.8926 26.3293 25.8392 26.4002 25.8102 26.482C25.4885 26.9483 25.0909 27.3575 24.634 27.6924C24.2309 28.0037 23.7386 28.1772 23.2295 28.1875C22.9539 28.206 22.6783 28.153 22.4292 28.0336C22.1802 27.9143 21.9662 27.7326 21.8079 27.5062C21.4809 26.9867 21.3186 26.3803 21.3425 25.7668V17.2654H29.8042L23.6991 25.4579V26.1392L25.0576 25.4579C25.6086 25.1046 26.2374 24.891 26.8896 24.8357C27.638 24.8305 28.3722 25.0405 29.0047 25.4409C29.6851 25.8836 30.201 26.538 30.4728 27.303C30.8341 28.2596 31.0065 29.2772 30.9805 30.2995C30.9954 31.28 30.8379 32.2555 30.5151 33.1815C30.2604 33.9595 29.762 34.6347 29.0936 35.107C28.4492 35.5384 27.6899 35.7655 26.9146 35.7588C26.329 35.7565 25.7466 35.6725 25.1842 35.5092C24.6816 35.402 24.2324 35.1219 23.915 34.7177C24.2396 34.6136 24.5217 34.407 24.7192 34.129C24.956 33.7885 25.0748 33.3797 25.0576 32.9652C25.0669 32.6181 24.9838 32.2748 24.8165 31.9705C24.6671 31.7059 24.4491 31.4865 24.1856 31.3353C23.8788 31.1822 23.5406 31.1025 23.1977 31.1025C22.8548 31.1025 22.5166 31.1822 22.2098 31.3353C21.9458 31.4871 21.7268 31.7063 21.5752 31.9705C21.4127 32.2763 21.3325 32.619 21.3425 32.9652C21.3703 34.1045 21.8479 35.1866 22.6709 35.9747Z" fill="black"/>
</svg>
