<svg width="46" height="46" viewBox="0 0 46 46" fill="none" xmlns="http://www.w3.org/2000/svg">
<g clip-path="url(#clip0_584_12082)">
<path d="M23 0C10.2974 0 0 10.2974 0 23C0 35.7026 10.2974 46 23 46C35.7026 46 46 35.7026 46 23C46 10.2974 35.7026 0 23 0ZM36.124 23.6342C35.4999 26.1826 34.0171 28.4688 32.093 30.2305C28.3488 33.6203 23.1631 35.2452 18.1525 34.9226C13.3355 34.6283 8.5953 32.2543 5.75 28.315C5.99887 28.4602 6.20754 28.6609 6.44514 28.8221C8.64811 30.4159 11.5811 30.9226 14.2003 30.2111C15.7896 29.801 17.2329 28.9119 18.3856 27.7507C17.648 27.8005 16.8294 27.6693 16.2949 27.1138C15.9617 26.7961 15.8241 26.2742 16.0245 25.8488C16.2671 25.3119 16.8062 25.0065 17.3155 24.7662C15.644 25.0052 13.8224 24.2263 13.0519 22.68C13.6167 22.0071 14.5191 21.7905 15.3575 21.7248C14.3818 21.441 13.3799 21.0923 12.6402 20.3646C12.0521 19.8129 11.6699 19.0484 11.5554 18.2524C12.246 18.1234 12.9396 17.9667 13.6474 17.9964C12.0424 17.1608 10.5752 15.5697 10.7032 13.6466C13.7471 14.7571 16.7418 16.023 19.6015 17.552C20.6019 18.1014 21.4334 18.8974 22.2514 19.6817C23.0439 17.6244 23.8942 15.5588 25.183 13.7537C25.8735 12.8043 26.6883 11.9207 27.6901 11.2951C27.6506 11.6062 27.4907 11.8777 27.3436 12.1475C28.0907 11.5835 28.9563 11.1471 29.8956 11.037C29.7664 11.5987 29.233 11.8928 28.7685 12.1481C29.4697 11.9409 30.1534 11.6349 30.8923 11.5844C31.0901 11.5774 31.3712 11.5857 31.4413 11.8151C31.5468 12.1008 31.258 12.3224 31.0388 12.4415C30.232 12.8578 29.3 12.9189 28.4797 13.3034C30.1656 13.1451 31.8484 13.7987 33.1273 14.8774C34.6533 16.1339 35.6622 17.9524 36.0297 19.8857C37.3787 20.2478 38.837 19.9855 40.1027 19.4482C39.4662 20.8892 37.8454 21.5479 36.3643 21.6763C37.5952 22.1408 38.9492 22.2199 40.2497 22.0816C39.2186 23.2245 37.6234 23.6693 36.124 23.6342Z" fill="black"/>
</g>
<defs>
<clipPath id="clip0_584_12082">
<rect width="46" height="46" fill="white"/>
</clipPath>
</defs>
</svg>
