<svg xmlns="http://www.w3.org/2000/svg" viewBox="0 0 601.03 68">
  <defs>
    <style>
      .cls-1 {
        font-size: 35.42px;
        font-family: RoobertPRO-Light, Roobert PRO;
        font-weight: 300;
        letter-spacing: 0.17em;
      }

      .cls-2 {
        fill: none;
        stroke: #000;
        stroke-miterlimit: 10;
      }
    </style>
  </defs>
  <title>Asset 1</title>
  <g id="Layer_2" data-name="Layer 2">
    <g id="Layer_1-2" data-name="Layer 1">
      <g id="Layer_1-2-2" data-name="Layer 1-2">
        <g>
          <path d="M143.64,12.42c4,0,7.71-.09,11.44.07A3.45,3.45,0,0,1,157.3,14c4.57,6.85,9.06,13.75,13.58,20.64a4.83,4.83,0,0,0,1.87,1.8V12.55h12.61V57.87c-4,0-8,.06-12.07-.08-.59,0-1.25-.95-1.68-1.59-4.44-6.65-8.83-13.32-13.23-20-.49-.73-1-1.42-1.94-2.7V57.75h-12.8Z"/>
          <path d="M0,57.75V12.58H12.76V30.45l.56.15c3.14-4.36,6.59-8.52,9.33-13.11,2.42-4.06,5.35-5.85,10.08-5.14,2.59.38,5.3.06,8.5.06-.7,1.06-1.13,1.79-1.64,2.46-4.41,5.88-8.77,11.72-13.29,17.48-1.23,1.57-1.38,2.56-.08,4.23,5,6.37,9.72,12.88,14.55,19.35a22,22,0,0,1,1.31,2c-5.17,0-10,.06-14.74-.06-.63,0-1.39-.79-1.83-1.4-3.67-5-7.28-10.14-10.92-15.21-.41-.58-.88-1.12-1.8-2.29V57.75Z"/>
          <path d="M333.4,57.75H320.1c-.62-1.79-1.16-3.77-2-5.62a3,3,0,0,0-2-1.6c-4.65-.14-9.31-.07-14.08-.07-.7,2-1.29,4-2.09,6a2.45,2.45,0,0,1-1.61,1.4c-4,.12-8,.06-12.24.06.27-.91.43-1.61.67-2.28,5-13.66,10-27.3,14.88-41,.6-1.66,1.37-2.36,3.17-2.27,3.58.16,7.16,0,10.74.11a2.88,2.88,0,0,1,2.16,1.35c5.27,14.25,10.43,28.55,15.6,42.84A4.88,4.88,0,0,1,333.4,57.75ZM310.09,27.69l-.54-.09-4.19,12.8h8.94Z"/>
          <path d="M67.56,57.89c1.34-3.68,2.52-6.94,3.71-10.14,4-11,8.08-22,12-33,.63-1.92,1.49-2.46,3.35-2.38,3.49.15,7,0,10.48.11a2.89,2.89,0,0,1,2.2,1.27c5.29,14.33,10.46,28.7,15.65,43.07a5.55,5.55,0,0,1,.09,1c-4.17,0-8.3,0-12.42-.06-.47,0-1.1-.81-1.35-1.38-.81-1.89-1-4.71-2.34-5.55-1.67-1-4.34-.35-6.58-.41h-1.5c-2.25,0-5-.74-6.59.29s-1.78,3.85-2.74,5.81a2.47,2.47,0,0,1-1.7,1.25C75.92,58,72,57.89,67.56,57.89ZM96,40.44c-1.47-4.39-2.86-8.57-4.26-12.75H91.2L87,40.44Z"/>
          <path d="M395.38,25.87h-12.7c-1.84-1.5-3.06-3-4.63-3.59-.8-.32-2.74.57-3.18,1.43a3.66,3.66,0,0,0,.74,3.42,20.25,20.25,0,0,0,5,2.68c3.17,1.43,6.54,2.49,9.56,4.19,8.33,4.69,6.63,15,2.14,19.55-6.84,6.92-22.82,6.35-28.68-1.36-1.71-2.25-2.43-5.25-3.92-8.63,5.25,0,9.53,0,13.81.06.34,0,.76.92,1,1.48.74,1.94,2.14,3.18,4.16,2.78,1.27-.25,3-1.19,3.34-2.2s-.68-2.94-1.67-3.55c-2-1.24-4.48-1.73-6.63-2.79-3.32-1.63-7-2.93-9.69-5.34-5.48-4.95-4.24-14.79,1.88-19s17.19-4.38,23.5-.23C393.31,17.36,395.14,21.07,395.38,25.87Z"/>
          <path d="M237.6,43.64l4.77-15.1c1.47-4.67,3-9.32,4.33-14,.48-1.72,1.27-2.18,3-2.12,3.65.12,7.31,0,11.36,0-.29,1.06-.47,1.89-.75,2.7-4.64,13.5-9.32,27-13.91,40.51-.55,1.65-1.24,2.4-3.12,2.33-4.16-.17-8.32,0-12.48-.11a2.59,2.59,0,0,1-2-1.19c-5.06-14.42-10-28.86-15-43.31a4.41,4.41,0,0,1,0-.89c4.27,0,8.54-.07,12.8.09.48,0,1.07,1.29,1.32,2.06q4.49,14,8.88,28l.3.94Z"/>
        </g>
      </g>
      <text class="cls-1" transform="translate(464.42 46.16)">ADMIN</text>
      <line class="cls-2" x1="435.61" x2="435.61" y2="68"/>
    </g>
  </g>
</svg>
